<svg width="100" height="100" viewBox="0 0 100 100" fill="none" xmlns="http://www.w3.org/2000/svg">
<path d="M90.625 18.75H9.375C8.5462 18.75 7.75134 19.0792 7.16529 19.6653C6.57924 20.2513 6.25 21.0462 6.25 21.875C6.25 22.7038 6.57924 23.4987 7.16529 24.0847C7.75134 24.6708 8.5462 25 9.375 25H90.625C91.4538 25 92.2487 24.6708 92.8347 24.0847C93.4208 23.4987 93.75 22.7038 93.75 21.875C93.75 21.0462 93.4208 20.2513 92.8347 19.6653C92.2487 19.0792 91.4538 18.75 90.625 18.75Z" fill="#D08512"/>
<path d="M9.375 53.125H50C50.8288 53.125 51.6237 52.7958 52.2097 52.2097C52.7958 51.6237 53.125 50.8288 53.125 50C53.125 49.1712 52.7958 48.3763 52.2097 47.7903C51.6237 47.2042 50.8288 46.875 50 46.875H9.375C8.5462 46.875 7.75134 47.2042 7.16529 47.7903C6.57924 48.3763 6.25 49.1712 6.25 50C6.25 50.8288 6.57924 51.6237 7.16529 52.2097C7.75134 52.7958 8.5462 53.125 9.375 53.125Z" fill="#D08512"/>
<path d="M78.125 75H9.375C8.5462 75 7.75134 75.3292 7.16529 75.9153C6.57924 76.5013 6.25 77.2962 6.25 78.125C6.25 78.9538 6.57924 79.7487 7.16529 80.3347C7.75134 80.9208 8.5462 81.25 9.375 81.25H78.125C78.9538 81.25 79.7487 80.9208 80.3347 80.3347C80.9208 79.7487 81.25 78.9538 81.25 78.125C81.25 77.2962 80.9208 76.5013 80.3347 75.9153C79.7487 75.3292 78.9538 75 78.125 75Z" fill="#D08512"/>
</svg>
