<svg width="100" height="100" viewBox="0 0 100 100" fill="none" xmlns="http://www.w3.org/2000/svg">
<path d="M50 50C54.3265 50 58.5558 48.717 62.1531 46.3134C65.7504 43.9097 68.5542 40.4933 70.2099 36.4962C71.8655 32.4991 72.2987 28.1007 71.4547 23.8574C70.6106 19.6141 68.5272 15.7163 65.468 12.657C62.4087 9.59776 58.5109 7.51437 54.2676 6.67032C50.0243 5.82626 45.6259 6.25946 41.6288 7.91513C37.6317 9.5708 34.2153 12.3746 31.8116 15.9719C29.4079 19.5692 28.125 23.7985 28.125 28.125C28.125 33.9266 30.4297 39.4906 34.532 43.593C38.6344 47.6953 44.1984 50 50 50ZM50 12.5C53.0903 12.5 56.1113 13.4164 58.6808 15.1333C61.2503 16.8502 63.253 19.2905 64.4356 22.1456C65.6182 25.0007 65.9277 28.1423 65.3248 31.1733C64.7219 34.2042 63.2337 36.9883 61.0485 39.1735C58.8633 41.3587 56.0792 42.8469 53.0483 43.4498C50.0173 44.0527 46.8757 43.7432 44.0206 42.5606C41.1655 41.378 38.7252 39.3753 37.0083 36.8058C35.2914 34.2363 34.375 31.2153 34.375 28.125C34.375 23.981 36.0212 20.0067 38.9515 17.0765C41.8817 14.1462 45.856 12.5 50 12.5Z" fill="#05A3CB"/>
<path d="M53.125 56.25H46.875C37.7582 56.25 29.0148 59.8716 22.5682 66.3182C16.1216 72.7648 12.5 81.5082 12.5 90.625C12.5 91.4538 12.8292 92.2487 13.4153 92.8347C14.0013 93.4208 14.7962 93.75 15.625 93.75H84.375C85.2038 93.75 85.9987 93.4208 86.5847 92.8347C87.1708 92.2487 87.5 91.4538 87.5 90.625C87.5 81.5082 83.8784 72.7648 77.4318 66.3182C70.9852 59.8716 62.2418 56.25 53.125 56.25ZM18.9375 87.5C19.7059 80.627 22.9797 74.2781 28.1334 69.6663C33.287 65.0545 39.9592 62.5033 46.875 62.5H53.125C60.0408 62.5033 66.713 65.0545 71.8666 69.6663C77.0203 74.2781 80.2941 80.627 81.0625 87.5H18.9375Z" fill="#05A3CB"/>
</svg>
