<svg width="24" height="24" viewBox="0 0 24 24" fill="none" xmlns="http://www.w3.org/2000/svg">
<path d="M12.7501 23.25H11.2501C10.6973 23.254 10.1624 23.0544 9.74739 22.6892C9.33241 22.324 9.06638 21.8188 9.00006 21.27C8.49675 21.1109 8.00756 20.9102 7.53756 20.67C7.10237 21.0141 6.55538 21.1853 6.00166 21.1507C5.44793 21.1161 4.92652 20.8781 4.53756 20.4825L3.51756 19.425C3.12194 19.036 2.88397 18.5146 2.84936 17.9609C2.81475 17.4072 2.98594 16.8602 3.33006 16.425C3.09171 15.9671 2.89105 15.4905 2.73006 15C2.18126 14.9337 1.67608 14.6677 1.31089 14.2527C0.945706 13.8377 0.746066 13.3028 0.750059 12.75V11.25C0.746066 10.6972 0.945706 10.1623 1.31089 9.74733C1.67608 9.33235 2.18126 9.06632 2.73006 9C2.88913 8.49669 3.08982 8.0075 3.33006 7.5375C2.98594 7.10231 2.81475 6.55532 2.84936 6.0016C2.88397 5.44787 3.12194 4.92646 3.51756 4.5375L4.57506 3.5175C4.96402 3.12187 5.48543 2.8839 6.03916 2.8493C6.59288 2.81469 7.13987 2.98588 7.57506 3.33C8.03299 3.09165 8.50956 2.89099 9.00006 2.73C9.06638 2.1812 9.33241 1.67602 9.74739 1.31083C10.1624 0.945645 10.6973 0.746005 11.2501 0.749998H12.7501C13.3028 0.746005 13.8377 0.945645 14.2527 1.31083C14.6677 1.67602 14.9337 2.1812 15.0001 2.73C15.5034 2.88906 15.9926 3.08976 16.4626 3.33C16.8978 2.98588 17.4447 2.81469 17.9985 2.8493C18.5522 2.8839 19.0736 3.12187 19.4626 3.5175L20.4826 4.575C20.8782 4.96396 21.1162 5.48537 21.1508 6.03909C21.1854 6.59282 21.0142 7.13981 20.6701 7.575C20.9103 8.045 21.111 8.53419 21.2701 9.0375C21.8125 9.10303 22.3125 9.36368 22.6768 9.7708C23.0411 10.1779 23.2449 10.7037 23.2501 11.25V12.75C23.2541 13.3028 23.0544 13.8377 22.6892 14.2527C22.324 14.6677 21.8189 14.9337 21.2701 15C21.111 15.5033 20.9103 15.9925 20.6701 16.4625C21.0142 16.8977 21.1854 17.4447 21.1508 17.9984C21.1162 18.5521 20.8782 19.0735 20.4826 19.4625L19.4251 20.4825C19.0361 20.8781 18.5147 21.1161 17.961 21.1507C17.4072 21.1853 16.8603 21.0141 16.4251 20.67C15.9551 20.9102 15.4659 21.1109 14.9626 21.27C14.897 21.8124 14.6364 22.3124 14.2293 22.6767C13.8221 23.0411 13.2964 23.2448 12.7501 23.25ZM7.43256 18.9975C7.56748 18.9952 7.70024 19.0316 7.81506 19.1025C8.47818 19.4925 9.19261 19.7879 9.93756 19.98C10.1026 20.0225 10.2482 20.12 10.3504 20.2563C10.4527 20.3926 10.5054 20.5597 10.5001 20.73V21C10.5001 21.1989 10.5791 21.3897 10.7197 21.5303C10.8604 21.671 11.0511 21.75 11.2501 21.75H12.7501C12.949 21.75 13.1397 21.671 13.2804 21.5303C13.421 21.3897 13.5001 21.1989 13.5001 21V20.7075C13.4947 20.5372 13.5474 20.3701 13.6497 20.2338C13.7519 20.0975 13.8975 20 14.0626 19.9575C14.8075 19.7654 15.5219 19.47 16.1851 19.08C16.3276 18.9961 16.4938 18.9616 16.6579 18.9819C16.8221 19.0023 16.9749 19.0763 17.0926 19.1925L17.3026 19.4025C17.3723 19.4728 17.4552 19.5286 17.5466 19.5667C17.638 19.6047 17.7361 19.6243 17.8351 19.6243C17.9341 19.6243 18.0321 19.6047 18.1235 19.5667C18.2149 19.5286 18.2978 19.4728 18.3676 19.4025L19.4251 18.345C19.4954 18.2753 19.5512 18.1923 19.5892 18.1009C19.6273 18.0095 19.6469 17.9115 19.6469 17.8125C19.6469 17.7135 19.6273 17.6155 19.5892 17.5241C19.5512 17.4327 19.4954 17.3497 19.4251 17.28L19.2151 17.07C19.0989 16.9523 19.0249 16.7995 19.0045 16.6354C18.9842 16.4713 19.0186 16.305 19.1026 16.1625C19.4926 15.4994 19.788 14.785 19.9801 14.04C20.0226 13.875 20.12 13.7294 20.2563 13.6271C20.3927 13.5249 20.5597 13.4721 20.7301 13.4775H21.0001C21.199 13.4775 21.3897 13.3985 21.5304 13.2578C21.671 13.1172 21.7501 12.9264 21.7501 12.7275V11.25C21.7501 11.0511 21.671 10.8603 21.5304 10.7197C21.3897 10.579 21.199 10.5 21.0001 10.5H20.7076C20.5372 10.5054 20.3702 10.4526 20.2338 10.3504C20.0975 10.2481 20.0001 10.1025 19.9576 9.9375C19.7655 9.19254 19.4701 8.47812 19.0801 7.815C18.9961 7.67249 18.9617 7.50625 18.982 7.34212C19.0024 7.17799 19.0764 7.02519 19.1926 6.9075L19.4026 6.6975C19.4729 6.62778 19.5287 6.54483 19.5667 6.45343C19.6048 6.36204 19.6244 6.26401 19.6244 6.165C19.6244 6.06599 19.6048 5.96796 19.5667 5.87657C19.5287 5.78517 19.4729 5.70222 19.4026 5.6325L18.3676 4.575C18.2978 4.5047 18.2149 4.44891 18.1235 4.41083C18.0321 4.37275 17.9341 4.35315 17.8351 4.35315C17.7361 4.35315 17.638 4.37275 17.5466 4.41083C17.4552 4.44891 17.3723 4.5047 17.3026 4.575L17.0926 4.785C16.9749 4.90118 16.8221 4.97521 16.6579 4.99555C16.4938 5.0159 16.3276 4.98143 16.1851 4.8975C15.5219 4.50747 14.8075 4.2121 14.0626 4.02C13.8975 3.97748 13.7519 3.88004 13.6497 3.74372C13.5474 3.60739 13.4947 3.44032 13.5001 3.27V3C13.5001 2.80109 13.421 2.61032 13.2804 2.46967C13.1397 2.32902 12.949 2.25 12.7501 2.25H11.2501C11.0511 2.25 10.8604 2.32902 10.7197 2.46967C10.5791 2.61032 10.5001 2.80109 10.5001 3V3.2925C10.5054 3.46282 10.4527 3.62989 10.3504 3.76622C10.2482 3.90254 10.1026 3.99998 9.93756 4.0425C9.19261 4.2346 8.47818 4.52997 7.81506 4.92C7.67256 5.00393 7.50631 5.0384 7.34218 5.01805C7.17805 4.99771 7.02526 4.92368 6.90756 4.8075L6.69756 4.575C6.62784 4.5047 6.54489 4.44891 6.45349 4.41083C6.3621 4.37275 6.26407 4.35315 6.16506 4.35315C6.06605 4.35315 5.96802 4.37275 5.87663 4.41083C5.78523 4.44891 5.70228 4.5047 5.63256 4.575L4.57506 5.6325C4.50476 5.70222 4.44897 5.78517 4.41089 5.87657C4.37281 5.96796 4.35321 6.06599 4.35321 6.165C4.35321 6.26401 4.37281 6.36204 4.41089 6.45343C4.44897 6.54483 4.50476 6.62778 4.57506 6.6975L4.78506 6.9075C4.90124 7.02519 4.97527 7.17799 4.99561 7.34212C5.01596 7.50625 4.98149 7.67249 4.89756 7.815C4.50753 8.47812 4.21217 9.19254 4.02006 9.9375C3.97754 10.1025 3.8801 10.2481 3.74378 10.3504C3.60745 10.4526 3.44038 10.5054 3.27006 10.5H3.00006C2.80115 10.5 2.61038 10.579 2.46973 10.7197C2.32908 10.8603 2.25006 11.0511 2.25006 11.25V12.75C2.25006 12.9489 2.32908 13.1397 2.46973 13.2803C2.61038 13.421 2.80115 13.5 3.00006 13.5H3.29256C3.46288 13.4946 3.62995 13.5474 3.76628 13.6496C3.9026 13.7519 4.00004 13.8975 4.04256 14.0625C4.23466 14.8075 4.53003 15.5219 4.92006 16.185C5.00399 16.3275 5.03846 16.4938 5.01811 16.6579C4.99777 16.822 4.92374 16.9748 4.80756 17.0925L4.59756 17.3025C4.52726 17.3722 4.47147 17.4552 4.43339 17.5466C4.39531 17.638 4.37571 17.736 4.37571 17.835C4.37571 17.934 4.39531 18.032 4.43339 18.1234C4.47147 18.2148 4.52726 18.2978 4.59756 18.3675L5.63256 19.425C5.70228 19.4953 5.78523 19.5511 5.87663 19.5892C5.96802 19.6272 6.06605 19.6468 6.16506 19.6468C6.26407 19.6468 6.3621 19.6272 6.45349 19.5892C6.54489 19.5511 6.62784 19.4953 6.69756 19.425L6.90756 19.215C7.04725 19.0764 7.2358 18.9983 7.43256 18.9975Z" fill="#00C0EF"/>
<path d="M12 17.25C10.9617 17.25 9.94662 16.9421 9.08326 16.3652C8.2199 15.7883 7.54699 14.9684 7.14963 14.0091C6.75227 13.0498 6.64831 11.9942 6.85088 10.9758C7.05345 9.95738 7.55347 9.02192 8.28769 8.28769C9.02192 7.55347 9.95738 7.05345 10.9758 6.85088C11.9942 6.64831 13.0498 6.75227 14.0091 7.14963C14.9684 7.54699 15.7883 8.2199 16.3652 9.08326C16.9421 9.94662 17.25 10.9617 17.25 12C17.25 13.3924 16.6969 14.7277 15.7123 15.7123C14.7277 16.6969 13.3924 17.25 12 17.25ZM12 8.25C11.2583 8.25 10.5333 8.46994 9.91661 8.88199C9.29993 9.29405 8.81928 9.87972 8.53545 10.5649C8.25162 11.2502 8.17736 12.0042 8.32206 12.7316C8.46675 13.459 8.8239 14.1272 9.34835 14.6517C9.8728 15.1761 10.541 15.5333 11.2684 15.6779C11.9958 15.8226 12.7498 15.7484 13.4351 15.4646C14.1203 15.1807 14.706 14.7001 15.118 14.0834C15.5301 13.4667 15.75 12.7417 15.75 12C15.75 11.0054 15.3549 10.0516 14.6517 9.34835C13.9484 8.64509 12.9946 8.25 12 8.25Z" fill="#00C0EF"/>
</svg>
