<svg width="42" height="42" viewBox="0 0 42 42" fill="none" xmlns="http://www.w3.org/2000/svg">
<path d="M11.34 11.8895L12.1975 15.3247C12.3065 15.7736 12.2337 16.2475 11.9948 16.6429C11.7559 17.0383 11.3703 17.3232 10.9222 17.4354C10.4741 17.5477 9.99976 17.4782 9.60267 17.2421C9.20558 17.0061 8.91794 16.6225 8.80248 16.1752L7.05248 9.17524C6.97174 8.85431 6.98366 8.51705 7.08685 8.20262C7.19004 7.88818 7.38028 7.60944 7.63548 7.39876C7.89069 7.18807 8.20041 7.05407 8.5287 7.01229C8.85699 6.97052 9.19039 7.02268 9.49023 7.16274L35.7402 19.4127C36.0423 19.5534 36.298 19.7775 36.4771 20.0585C36.6562 20.3395 36.7514 20.6659 36.7514 20.9991C36.7514 21.3324 36.6562 21.6587 36.4771 21.9397C36.298 22.2208 36.0423 22.4448 35.7402 22.5855L9.49023 34.8355C9.1862 34.9775 8.84775 35.0292 8.5152 34.9842C8.18265 34.9393 7.87003 34.7997 7.61459 34.5821C7.35916 34.3644 7.17168 34.078 7.0745 33.7568C6.97732 33.4356 6.97454 33.0932 7.06648 32.7705L10.5665 20.5205C10.6708 20.1545 10.8915 19.8324 11.1953 19.6031C11.4991 19.3739 11.8694 19.2499 12.25 19.25H19.25C19.7141 19.25 20.1592 19.4344 20.4874 19.7626C20.8156 20.0907 21 20.5359 21 21C21 21.4641 20.8156 21.9092 20.4874 22.2374C20.1592 22.5656 19.7141 22.75 19.25 22.75H13.5695L11.487 30.0422L30.8612 21L11.34 11.8895Z" fill="#CECECE"/>
</svg>
